solid 
   facet normal 0.000000e+000 0.000000e+000 1.000000e+000
      outer loop
         vertex 5.000000e+000 1.050000e+002 3.000000e+000
         vertex 5.000000e+000 5.000000e+000 3.000000e+000
         vertex 7.000000e+000 5.000000e+000 3.000000e+000
      endloop
   endfacet
   facet normal 0.000000e+000 0.000000e+000 1.000000e+000
      outer loop
         vertex 7.000000e+000 0.000000e+000 3.000000e+000
         vertex 5.800000e+001 0.000000e+000 3.000000e+000
         vertex 7.000000e+000 5.000000e+000 3.000000e+000
      endloop
   endfacet
   facet normal 0.000000e+000 0.000000e+000 1.000000e+000
      outer loop
         vertex 6.000000e+001 5.000000e+000 3.000000e+000
         vertex 6.000000e+001 1.050000e+002 3.000000e+000
         vertex 5.800000e+001 5.000000e+000 3.000000e+000
      endloop
   endfacet
   facet normal -0.000000e+000 0.000000e+000 1.000000e+000
      outer loop
         vertex 5.800000e+001 1.100000e+002 3.000000e+000
         vertex 7.000000e+000 1.100000e+002 3.000000e+000
         vertex 5.800000e+001 1.050000e+002 3.000000e+000
      endloop
   endfacet
   facet normal 0.000000e+000 -0.000000e+000 1.000000e+000
      outer loop
         vertex 5.000000e+000 1.050000e+002 3.000000e+000
         vertex 7.000000e+000 5.000000e+000 3.000000e+000
         vertex 7.000000e+000 1.050000e+002 3.000000e+000
      endloop
   endfacet
   facet normal 0.000000e+000 0.000000e+000 1.000000e+000
      outer loop
         vertex 5.800000e+001 1.050000e+002 3.000000e+000
         vertex 7.000000e+000 1.100000e+002 3.000000e+000
         vertex 7.000000e+000 1.050000e+002 3.000000e+000
      endloop
   endfacet
   facet normal 0.000000e+000 0.000000e+000 1.000000e+000
      outer loop
         vertex 5.800000e+001 0.000000e+000 3.000000e+000
         vertex 5.800000e+001 5.000000e+000 3.000000e+000
         vertex 7.000000e+000 5.000000e+000 3.000000e+000
      endloop
   endfacet
   facet normal 0.000000e+000 0.000000e+000 1.000000e+000
      outer loop
         vertex 5.800000e+001 5.000000e+000 3.000000e+000
         vertex 6.000000e+001 1.050000e+002 3.000000e+000
         vertex 5.800000e+001 1.050000e+002 3.000000e+000
      endloop
   endfacet
   facet normal 0.000000e+000 -0.000000e+000 1.000000e+000
      outer loop
         vertex 7.000000e+000 5.000000e+000 3.000000e+000
         vertex 5.800000e+001 5.000000e+000 3.000000e+000
         vertex 5.800000e+001 1.050000e+002 3.000000e+000
      endloop
   endfacet
   facet normal 0.000000e+000 0.000000e+000 1.000000e+000
      outer loop
         vertex 7.000000e+000 1.050000e+002 3.000000e+000
         vertex 7.000000e+000 5.000000e+000 3.000000e+000
         vertex 5.800000e+001 1.050000e+002 3.000000e+000
      endloop
   endfacet
   facet normal 0.000000e+000 -1.000000e+000 0.000000e+000
      outer loop
         vertex 0.000000e+000 0.000000e+000 0.000000e+000
         vertex 6.500000e+001 0.000000e+000 0.000000e+000
         vertex 5.800000e+001 0.000000e+000 3.000000e+000
      endloop
   endfacet
   facet normal 0.000000e+000 -1.000000e+000 0.000000e+000
      outer loop
         vertex 6.500000e+001 0.000000e+000 3.800000e+001
         vertex 0.000000e+000 0.000000e+000 3.800000e+001
         vertex 7.000000e+000 0.000000e+000 1.300000e+001
      endloop
   endfacet
   facet normal 0.000000e+000 -1.000000e+000 0.000000e+000
      outer loop
         vertex 7.000000e+000 0.000000e+000 1.300000e+001
         vertex 5.800000e+001 0.000000e+000 1.300000e+001
         vertex 6.500000e+001 0.000000e+000 3.800000e+001
      endloop
   endfacet
   facet normal 0.000000e+000 -1.000000e+000 -0.000000e+000
      outer loop
         vertex 5.800000e+001 0.000000e+000 3.000000e+000
         vertex 7.000000e+000 0.000000e+000 3.000000e+000
         vertex 0.000000e+000 0.000000e+000 0.000000e+000
      endloop
   endfacet
   facet normal 0.000000e+000 -1.000000e+000 0.000000e+000
      outer loop
         vertex 5.800000e+001 0.000000e+000 3.000000e+000
         vertex 6.500000e+001 0.000000e+000 0.000000e+000
         vertex 5.800000e+001 0.000000e+000 1.300000e+001
      endloop
   endfacet
   facet normal -0.000000e+000 -1.000000e+000 0.000000e+000
      outer loop
         vertex 0.000000e+000 0.000000e+000 0.000000e+000
         vertex 7.000000e+000 0.000000e+000 3.000000e+000
         vertex 7.000000e+000 0.000000e+000 1.300000e+001
      endloop
   endfacet
   facet normal 0.000000e+000 -1.000000e+000 -0.000000e+000
      outer loop
         vertex 6.500000e+001 0.000000e+000 0.000000e+000
         vertex 6.500000e+001 0.000000e+000 3.800000e+001
         vertex 5.800000e+001 0.000000e+000 1.300000e+001
      endloop
   endfacet
   facet normal 0.000000e+000 -1.000000e+000 0.000000e+000
      outer loop
         vertex 7.000000e+000 0.000000e+000 1.300000e+001
         vertex 0.000000e+000 0.000000e+000 3.800000e+001
         vertex 0.000000e+000 0.000000e+000 0.000000e+000
      endloop
   endfacet
   facet normal 0.000000e+000 1.000000e+000 0.000000e+000
      outer loop
         vertex 5.800000e+001 5.000000e+000 1.300000e+001
         vertex 6.000000e+001 5.000000e+000 3.000000e+000
         vertex 5.800000e+001 5.000000e+000 3.000000e+000
      endloop
   endfacet
   facet normal -0.000000e+000 1.000000e+000 0.000000e+000
      outer loop
         vertex 7.000000e+000 5.000000e+000 1.300000e+001
         vertex 5.000000e+000 5.000000e+000 3.800000e+001
         vertex 6.000000e+001 5.000000e+000 3.800000e+001
      endloop
   endfacet
   facet normal 0.000000e+000 1.000000e+000 -0.000000e+000
      outer loop
         vertex 7.000000e+000 5.000000e+000 1.300000e+001
         vertex 7.000000e+000 5.000000e+000 3.000000e+000
         vertex 5.000000e+000 5.000000e+000 3.000000e+000
      endloop
   endfacet
   facet normal 0.000000e+000 1.000000e+000 -0.000000e+000
      outer loop
         vertex 6.000000e+001 5.000000e+000 3.800000e+001
         vertex 6.000000e+001 5.000000e+000 3.000000e+000
         vertex 5.800000e+001 5.000000e+000 1.300000e+001
      endloop
   endfacet
   facet normal 0.000000e+000 1.000000e+000 0.000000e+000
      outer loop
         vertex 5.000000e+000 5.000000e+000 3.800000e+001
         vertex 7.000000e+000 5.000000e+000 1.300000e+001
         vertex 5.000000e+000 5.000000e+000 3.000000e+000
      endloop
   endfacet
   facet normal 0.000000e+000 1.000000e+000 -0.000000e+000
      outer loop
         vertex 6.000000e+001 5.000000e+000 3.800000e+001
         vertex 5.800000e+001 5.000000e+000 1.300000e+001
         vertex 7.000000e+000 5.000000e+000 1.300000e+001
      endloop
   endfacet
   facet normal 1.000000e+000 0.000000e+000 0.000000e+000
      outer loop
         vertex 7.000000e+000 0.000000e+000 1.300000e+001
         vertex 7.000000e+000 0.000000e+000 3.000000e+000
         vertex 7.000000e+000 5.000000e+000 3.000000e+000
      endloop
   endfacet
   facet normal 1.000000e+000 0.000000e+000 -0.000000e+000
      outer loop
         vertex 7.000000e+000 0.000000e+000 1.300000e+001
         vertex 7.000000e+000 5.000000e+000 3.000000e+000
         vertex 7.000000e+000 5.000000e+000 1.300000e+001
      endloop
   endfacet
   facet normal 0.000000e+000 0.000000e+000 -1.000000e+000
      outer loop
         vertex 5.800000e+001 0.000000e+000 1.300000e+001
         vertex 7.000000e+000 0.000000e+000 1.300000e+001
         vertex 7.000000e+000 5.000000e+000 1.300000e+001
      endloop
   endfacet
   facet normal 0.000000e+000 0.000000e+000 -1.000000e+000
      outer loop
         vertex 5.800000e+001 0.000000e+000 1.300000e+001
         vertex 7.000000e+000 5.000000e+000 1.300000e+001
         vertex 5.800000e+001 5.000000e+000 1.300000e+001
      endloop
   endfacet
   facet normal -1.000000e+000 0.000000e+000 0.000000e+000
      outer loop
         vertex 5.800000e+001 0.000000e+000 3.000000e+000
         vertex 5.800000e+001 0.000000e+000 1.300000e+001
         vertex 5.800000e+001 5.000000e+000 1.300000e+001
      endloop
   endfacet
   facet normal -1.000000e+000 0.000000e+000 -0.000000e+000
      outer loop
         vertex 5.800000e+001 0.000000e+000 3.000000e+000
         vertex 5.800000e+001 5.000000e+000 1.300000e+001
         vertex 5.800000e+001 5.000000e+000 3.000000e+000
      endloop
   endfacet
   facet normal -1.000000e+000 -0.000000e+000 -0.000000e+000
      outer loop
         vertex 6.000000e+001 5.000000e+000 3.800000e+001
         vertex 6.000000e+001 1.050000e+002 3.800000e+001
         vertex 6.000000e+001 1.050000e+002 3.000000e+000
      endloop
   endfacet
   facet normal -1.000000e+000 0.000000e+000 0.000000e+000
      outer loop
         vertex 6.000000e+001 5.000000e+000 3.800000e+001
         vertex 6.000000e+001 1.050000e+002 3.000000e+000
         vertex 6.000000e+001 5.000000e+000 3.000000e+000
      endloop
   endfacet
   facet normal 0.000000e+000 -1.000000e+000 0.000000e+000
      outer loop
         vertex 5.000000e+000 1.050000e+002 3.800000e+001
         vertex 7.000000e+000 1.050000e+002 1.900000e+001
         vertex 5.800000e+001 1.050000e+002 1.900000e+001
      endloop
   endfacet
   facet normal 0.000000e+000 -1.000000e+000 0.000000e+000
      outer loop
         vertex 7.000000e+000 1.050000e+002 1.900000e+001
         vertex 5.000000e+000 1.050000e+002 3.000000e+000
         vertex 7.000000e+000 1.050000e+002 3.000000e+000
      endloop
   endfacet
   facet normal 0.000000e+000 -1.000000e+000 0.000000e+000
      outer loop
         vertex 5.800000e+001 1.050000e+002 1.900000e+001
         vertex 6.000000e+001 1.050000e+002 3.000000e+000
         vertex 6.000000e+001 1.050000e+002 3.800000e+001
      endloop
   endfacet
   facet normal 0.000000e+000 -1.000000e+000 0.000000e+000
      outer loop
         vertex 6.000000e+001 1.050000e+002 3.000000e+000
         vertex 5.800000e+001 1.050000e+002 1.900000e+001
         vertex 5.800000e+001 1.050000e+002 3.000000e+000
      endloop
   endfacet
   facet normal 0.000000e+000 -1.000000e+000 0.000000e+000
      outer loop
         vertex 5.000000e+000 1.050000e+002 3.800000e+001
         vertex 5.000000e+000 1.050000e+002 3.000000e+000
         vertex 7.000000e+000 1.050000e+002 1.900000e+001
      endloop
   endfacet
   facet normal -0.000000e+000 -1.000000e+000 0.000000e+000
      outer loop
         vertex 5.800000e+001 1.050000e+002 1.900000e+001
         vertex 6.000000e+001 1.050000e+002 3.800000e+001
         vertex 5.000000e+000 1.050000e+002 3.800000e+001
      endloop
   endfacet
   facet normal -1.000000e+000 0.000000e+000 0.000000e+000
      outer loop
         vertex 5.800000e+001 1.050000e+002 3.000000e+000
         vertex 5.800000e+001 1.050000e+002 1.900000e+001
         vertex 5.800000e+001 1.100000e+002 1.900000e+001
      endloop
   endfacet
   facet normal -1.000000e+000 0.000000e+000 -0.000000e+000
      outer loop
         vertex 5.800000e+001 1.050000e+002 3.000000e+000
         vertex 5.800000e+001 1.100000e+002 1.900000e+001
         vertex 5.800000e+001 1.100000e+002 3.000000e+000
      endloop
   endfacet
   facet normal 0.000000e+000 1.000000e+000 0.000000e+000
      outer loop
         vertex 6.500000e+001 1.100000e+002 0.000000e+000
         vertex 0.000000e+000 1.100000e+002 0.000000e+000
         vertex 7.000000e+000 1.100000e+002 3.000000e+000
      endloop
   endfacet
   facet normal 0.000000e+000 1.000000e+000 0.000000e+000
      outer loop
         vertex 0.000000e+000 1.100000e+002 3.800000e+001
         vertex 6.500000e+001 1.100000e+002 3.800000e+001
         vertex 7.000000e+000 1.100000e+002 1.900000e+001
      endloop
   endfacet
   facet normal 0.000000e+000 1.000000e+000 0.000000e+000
      outer loop
         vertex 7.000000e+000 1.100000e+002 3.000000e+000
         vertex 5.800000e+001 1.100000e+002 3.000000e+000
         vertex 6.500000e+001 1.100000e+002 0.000000e+000
      endloop
   endfacet
   facet normal 0.000000e+000 1.000000e+000 0.000000e+000
      outer loop
         vertex 5.800000e+001 1.100000e+002 1.900000e+001
         vertex 7.000000e+000 1.100000e+002 1.900000e+001
         vertex 6.500000e+001 1.100000e+002 3.800000e+001
      endloop
   endfacet
   facet normal 0.000000e+000 1.000000e+000 0.000000e+000
      outer loop
         vertex 7.000000e+000 1.100000e+002 3.000000e+000
         vertex 0.000000e+000 1.100000e+002 0.000000e+000
         vertex 7.000000e+000 1.100000e+002 1.900000e+001
      endloop
   endfacet
   facet normal 0.000000e+000 1.000000e+000 0.000000e+000
      outer loop
         vertex 5.800000e+001 1.100000e+002 1.900000e+001
         vertex 6.500000e+001 1.100000e+002 3.800000e+001
         vertex 6.500000e+001 1.100000e+002 0.000000e+000
      endloop
   endfacet
   facet normal 0.000000e+000 1.000000e+000 0.000000e+000
      outer loop
         vertex 0.000000e+000 1.100000e+002 0.000000e+000
         vertex 0.000000e+000 1.100000e+002 3.800000e+001
         vertex 7.000000e+000 1.100000e+002 1.900000e+001
      endloop
   endfacet
   facet normal -0.000000e+000 1.000000e+000 0.000000e+000
      outer loop
         vertex 6.500000e+001 1.100000e+002 0.000000e+000
         vertex 5.800000e+001 1.100000e+002 3.000000e+000
         vertex 5.800000e+001 1.100000e+002 1.900000e+001
      endloop
   endfacet
   facet normal 1.000000e+000 0.000000e+000 0.000000e+000
      outer loop
         vertex 7.000000e+000 1.050000e+002 1.900000e+001
         vertex 7.000000e+000 1.050000e+002 3.000000e+000
         vertex 7.000000e+000 1.100000e+002 3.000000e+000
      endloop
   endfacet
   facet normal 1.000000e+000 0.000000e+000 -0.000000e+000
      outer loop
         vertex 7.000000e+000 1.050000e+002 1.900000e+001
         vertex 7.000000e+000 1.100000e+002 3.000000e+000
         vertex 7.000000e+000 1.100000e+002 1.900000e+001
      endloop
   endfacet
   facet normal 1.000000e+000 0.000000e+000 0.000000e+000
      outer loop
         vertex 5.000000e+000 1.825000e+001 1.975000e+001
         vertex 5.000000e+000 5.000000e+000 3.800000e+001
         vertex 5.000000e+000 5.000000e+000 3.000000e+000
      endloop
   endfacet
   facet normal 1.000000e+000 0.000000e+000 -0.000000e+000
      outer loop
         vertex 5.000000e+000 2.175000e+001 1.975000e+001
         vertex 5.000000e+000 1.050000e+002 3.000000e+000
         vertex 5.000000e+000 1.050000e+002 3.800000e+001
      endloop
   endfacet
   facet normal 1.000000e+000 0.000000e+000 0.000000e+000
      outer loop
         vertex 5.000000e+000 2.175000e+001 1.625000e+001
         vertex 5.000000e+000 2.112488e+001 1.665942e+001
         vertex 5.000000e+000 2.000000e+001 1.625000e+001
      endloop
   endfacet
   facet normal 1.000000e+000 -0.000000e+000 0.000000e+000
      outer loop
         vertex 5.000000e+000 2.175000e+001 1.975000e+001
         vertex 5.000000e+000 2.151554e+001 1.887500e+001
         vertex 5.000000e+000 2.172341e+001 1.769612e+001
      endloop
   endfacet
   facet normal 1.000000e+000 0.000000e+000 0.000000e+000
      outer loop
         vertex 5.000000e+000 2.175000e+001 1.975000e+001
         vertex 5.000000e+000 1.940146e+001 1.964446e+001
         vertex 5.000000e+000 2.059854e+001 1.964446e+001
      endloop
   endfacet
   facet normal 1.000000e+000 0.000000e+000 -0.000000e+000
      outer loop
         vertex 5.000000e+000 1.825000e+001 1.975000e+001
         vertex 5.000000e+000 1.827659e+001 1.769612e+001
         vertex 5.000000e+000 1.848446e+001 1.887500e+001
      endloop
   endfacet
   facet normal 1.000000e+000 0.000000e+000 0.000000e+000
      outer loop
         vertex 5.000000e+000 1.825000e+001 1.625000e+001
         vertex 5.000000e+000 2.000000e+001 1.625000e+001
         vertex 5.000000e+000 1.887512e+001 1.665942e+001
      endloop
   endfacet
   facet normal 1.000000e+000 0.000000e+000 0.000000e+000
      outer loop
         vertex 5.000000e+000 1.940146e+001 1.964446e+001
         vertex 5.000000e+000 2.175000e+001 1.975000e+001
         vertex 5.000000e+000 1.825000e+001 1.975000e+001
      endloop
   endfacet
   facet normal 1.000000e+000 0.000000e+000 0.000000e+000
      outer loop
         vertex 5.000000e+000 1.827659e+001 1.769612e+001
         vertex 5.000000e+000 1.825000e+001 1.975000e+001
         vertex 5.000000e+000 1.825000e+001 1.625000e+001
      endloop
   endfacet
   facet normal 1.000000e+000 0.000000e+000 0.000000e+000
      outer loop
         vertex 5.000000e+000 1.825000e+001 1.625000e+001
         vertex 5.000000e+000 1.825000e+001 1.975000e+001
         vertex 5.000000e+000 5.000000e+000 3.000000e+000
      endloop
   endfacet
   facet normal 1.000000e+000 0.000000e+000 0.000000e+000
      outer loop
         vertex 5.000000e+000 2.175000e+001 1.625000e+001
         vertex 5.000000e+000 1.050000e+002 3.000000e+000
         vertex 5.000000e+000 2.175000e+001 1.975000e+001
      endloop
   endfacet
   facet normal 1.000000e+000 0.000000e+000 0.000000e+000
      outer loop
         vertex 5.000000e+000 2.175000e+001 1.625000e+001
         vertex 5.000000e+000 2.175000e+001 1.975000e+001
         vertex 5.000000e+000 2.172341e+001 1.769612e+001
      endloop
   endfacet
   facet normal 1.000000e+000 0.000000e+000 0.000000e+000
      outer loop
         vertex 5.000000e+000 1.940146e+001 1.964446e+001
         vertex 5.000000e+000 1.825000e+001 1.975000e+001
         vertex 5.000000e+000 1.848446e+001 1.887500e+001
      endloop
   endfacet
   facet normal 1.000000e+000 0.000000e+000 0.000000e+000
      outer loop
         vertex 5.000000e+000 1.887512e+001 1.665942e+001
         vertex 5.000000e+000 1.827659e+001 1.769612e+001
         vertex 5.000000e+000 1.825000e+001 1.625000e+001
      endloop
   endfacet
   facet normal 1.000000e+000 0.000000e+000 0.000000e+000
      outer loop
         vertex 5.000000e+000 2.175000e+001 1.975000e+001
         vertex 5.000000e+000 1.050000e+002 3.800000e+001
         vertex 5.000000e+000 5.000000e+000 3.800000e+001
      endloop
   endfacet
   facet normal 1.000000e+000 0.000000e+000 0.000000e+000
      outer loop
         vertex 5.000000e+000 2.175000e+001 1.625000e+001
         vertex 5.000000e+000 2.172341e+001 1.769612e+001
         vertex 5.000000e+000 2.112488e+001 1.665942e+001
      endloop
   endfacet
   facet normal 1.000000e+000 0.000000e+000 0.000000e+000
      outer loop
         vertex 5.000000e+000 2.175000e+001 1.975000e+001
         vertex 5.000000e+000 5.000000e+000 3.800000e+001
         vertex 5.000000e+000 1.825000e+001 1.975000e+001
      endloop
   endfacet
   facet normal 1.000000e+000 0.000000e+000 0.000000e+000
      outer loop
         vertex 5.000000e+000 2.151554e+001 1.887500e+001
         vertex 5.000000e+000 2.175000e+001 1.975000e+001
         vertex 5.000000e+000 2.059854e+001 1.964446e+001
      endloop
   endfacet
   facet normal 1.000000e+000 0.000000e+000 0.000000e+000
      outer loop
         vertex 5.000000e+000 2.175000e+001 1.625000e+001
         vertex 5.000000e+000 5.000000e+000 3.000000e+000
         vertex 5.000000e+000 1.050000e+002 3.000000e+000
      endloop
   endfacet
   facet normal 1.000000e+000 0.000000e+000 0.000000e+000
      outer loop
         vertex 5.000000e+000 5.000000e+000 3.000000e+000
         vertex 5.000000e+000 2.000000e+001 1.625000e+001
         vertex 5.000000e+000 1.825000e+001 1.625000e+001
      endloop
   endfacet
   facet normal 1.000000e+000 -0.000000e+000 0.000000e+000
      outer loop
         vertex 5.000000e+000 2.175000e+001 1.625000e+001
         vertex 5.000000e+000 2.000000e+001 1.625000e+001
         vertex 5.000000e+000 5.000000e+000 3.000000e+000
      endloop
   endfacet
   facet normal 1.000000e+000 0.000000e+000 -0.000000e+000
      outer loop
         vertex 6.500000e+001 0.000000e+000 0.000000e+000
         vertex 6.500000e+001 1.100000e+002 0.000000e+000
         vertex 6.500000e+001 1.100000e+002 3.800000e+001
      endloop
   endfacet
   facet normal 1.000000e+000 0.000000e+000 0.000000e+000
      outer loop
         vertex 6.500000e+001 0.000000e+000 3.800000e+001
         vertex 6.500000e+001 0.000000e+000 0.000000e+000
         vertex 6.500000e+001 1.100000e+002 3.800000e+001
      endloop
   endfacet
   facet normal 0.000000e+000 0.000000e+000 1.000000e+000
      outer loop
         vertex 0.000000e+000 0.000000e+000 3.800000e+001
         vertex 6.500000e+001 0.000000e+000 3.800000e+001
         vertex 3.250000e+001 4.000000e+000 3.800000e+001
      endloop
   endfacet
   facet normal -0.000000e+000 0.000000e+000 1.000000e+000
      outer loop
         vertex 6.500000e+001 1.100000e+002 3.800000e+001
         vertex 0.000000e+000 1.100000e+002 3.800000e+001
         vertex 2.760472e+000 1.089772e+002 3.800000e+001
      endloop
   endfacet
   facet normal 0.000000e+000 -0.000000e+000 1.000000e+000
      outer loop
         vertex 3.649067e+000 3.464181e+000 3.800000e+001
         vertex 4.000000e+000 2.500000e+000 3.800000e+001
         vertex 4.000000e+000 4.000000e+000 3.800000e+001
      endloop
   endfacet
   facet normal 0.000000e+000 0.000000e+000 1.000000e+000
      outer loop
         vertex 2.760472e+000 1.022788e+000 3.800000e+001
         vertex 1.750000e+000 1.200962e+000 3.800000e+001
         vertex 0.000000e+000 0.000000e+000 3.800000e+001
      endloop
   endfacet
   facet normal 0.000000e+000 0.000000e+000 1.000000e+000
      outer loop
         vertex 1.090461e+000 1.986970e+000 3.800000e+001
         vertex 1.090461e+000 3.013030e+000 3.800000e+001
         vertex 0.000000e+000 0.000000e+000 3.800000e+001
      endloop
   endfacet
   facet normal 0.000000e+000 -0.000000e+000 1.000000e+000
      outer loop
         vertex 2.760472e+000 3.977212e+000 3.800000e+001
         vertex 3.649067e+000 3.464181e+000 3.800000e+001
         vertex 4.000000e+000 4.000000e+000 3.800000e+001
      endloop
   endfacet
   facet normal -0.000000e+000 0.000000e+000 1.000000e+000
      outer loop
         vertex 4.000000e+000 1.075000e+002 3.800000e+001
         vertex 3.649067e+000 1.065358e+002 3.800000e+001
         vertex 5.000000e+000 1.050000e+002 3.800000e+001
      endloop
   endfacet
   facet normal 0.000000e+000 0.000000e+000 1.000000e+000
      outer loop
         vertex 2.760472e+000 1.060228e+002 3.800000e+001
         vertex 1.750000e+000 1.062010e+002 3.800000e+001
         vertex 4.000000e+000 1.050000e+002 3.800000e+001
      endloop
   endfacet
   facet normal 0.000000e+000 0.000000e+000 1.000000e+000
      outer loop
         vertex 1.090461e+000 1.069870e+002 3.800000e+001
         vertex 1.090461e+000 1.080130e+002 3.800000e+001
         vertex 0.000000e+000 1.100000e+002 3.800000e+001
      endloop
   endfacet
   facet normal 0.000000e+000 0.000000e+000 1.000000e+000
      outer loop
         vertex 1.750000e+000 1.087990e+002 3.800000e+001
         vertex 2.760472e+000 1.089772e+002 3.800000e+001
         vertex 0.000000e+000 1.100000e+002 3.800000e+001
      endloop
   endfacet
   facet normal 0.000000e+000 -0.000000e+000 1.000000e+000
      outer loop
         vertex 6.364907e+001 1.084642e+002 3.800000e+001
         vertex 6.400000e+001 1.075000e+002 3.800000e+001
         vertex 6.500000e+001 1.100000e+002 3.800000e+001
      endloop
   endfacet
   facet normal 0.000000e+000 0.000000e+000 1.000000e+000
      outer loop
         vertex 6.276047e+001 1.060228e+002 3.800000e+001
         vertex 6.175000e+001 1.062010e+002 3.800000e+001
         vertex 6.000000e+001 1.050000e+002 3.800000e+001
      endloop
   endfacet
   facet normal 0.000000e+000 0.000000e+000 1.000000e+000
      outer loop
         vertex 6.109046e+001 1.069870e+002 3.800000e+001
         vertex 6.109046e+001 1.080130e+002 3.800000e+001
         vertex 6.000000e+001 1.050000e+002 3.800000e+001
      endloop
   endfacet
   facet normal 0.000000e+000 -0.000000e+000 1.000000e+000
      outer loop
         vertex 6.175000e+001 1.087990e+002 3.800000e+001
         vertex 6.276047e+001 1.089772e+002 3.800000e+001
         vertex 6.500000e+001 1.100000e+002 3.800000e+001
      endloop
   endfacet
   facet normal -0.000000e+000 -0.000000e+000 1.000000e+000
      outer loop
         vertex 6.364907e+001 3.464181e+000 3.800000e+001
         vertex 6.400000e+001 2.500000e+000 3.800000e+001
         vertex 6.500000e+001 0.000000e+000 3.800000e+001
      endloop
   endfacet
   facet normal -0.000000e+000 0.000000e+000 1.000000e+000
      outer loop
         vertex 6.364907e+001 1.535819e+000 3.800000e+001
         vertex 6.276047e+001 1.022788e+000 3.800000e+001
         vertex 6.500000e+001 0.000000e+000 3.800000e+001
      endloop
   endfacet
   facet normal 0.000000e+000 0.000000e+000 1.000000e+000
      outer loop
         vertex 6.109046e+001 1.986970e+000 3.800000e+001
         vertex 6.109046e+001 3.013030e+000 3.800000e+001
         vertex 6.000000e+001 4.000000e+000 3.800000e+001
      endloop
   endfacet
   facet normal 0.000000e+000 0.000000e+000 1.000000e+000
      outer loop
         vertex 6.175000e+001 3.799038e+000 3.800000e+001
         vertex 6.276047e+001 3.977212e+000 3.800000e+001
         vertex 6.000000e+001 5.000000e+000 3.800000e+001
      endloop
   endfacet
   facet normal 0.000000e+000 -0.000000e+000 1.000000e+000
      outer loop
         vertex 5.000000e+000 1.050000e+002 3.800000e+001
         vertex 6.000000e+001 1.050000e+002 3.800000e+001
         vertex 6.109046e+001 1.080130e+002 3.800000e+001
      endloop
   endfacet
   facet normal -0.000000e+000 0.000000e+000 1.000000e+000
      outer loop
         vertex 6.000000e+001 5.000000e+000 3.800000e+001
         vertex 5.000000e+000 5.000000e+000 3.800000e+001
         vertex 3.250000e+001 4.000000e+000 3.800000e+001
      endloop
   endfacet
   facet normal -0.000000e+000 0.000000e+000 1.000000e+000
      outer loop
         vertex 3.250000e+001 4.000000e+000 3.800000e+001
         vertex 4.000000e+000 4.000000e+000 3.800000e+001
         vertex 4.000000e+000 2.500000e+000 3.800000e+001
      endloop
   endfacet
   facet normal 0.000000e+000 0.000000e+000 1.000000e+000
      outer loop
         vertex 4.000000e+000 4.000000e+000 3.800000e+001
         vertex 4.000000e+000 5.500000e+001 3.800000e+001
         vertex 2.760472e+000 3.977212e+000 3.800000e+001
      endloop
   endfacet
   facet normal 0.000000e+000 0.000000e+000 1.000000e+000
      outer loop
         vertex 4.000000e+000 5.500000e+001 3.800000e+001
         vertex 4.000000e+000 4.000000e+000 3.800000e+001
         vertex 5.000000e+000 5.000000e+000 3.800000e+001
      endloop
   endfacet
   facet normal 0.000000e+000 0.000000e+000 1.000000e+000
      outer loop
         vertex 4.000000e+000 5.500000e+001 3.800000e+001
         vertex 4.000000e+000 1.050000e+002 3.800000e+001
         vertex 1.750000e+000 1.062010e+002 3.800000e+001
      endloop
   endfacet
   facet normal 0.000000e+000 0.000000e+000 1.000000e+000
      outer loop
         vertex 0.000000e+000 0.000000e+000 3.800000e+001
         vertex 3.250000e+001 4.000000e+000 3.800000e+001
         vertex 2.760472e+000 1.022788e+000 3.800000e+001
      endloop
   endfacet
   facet normal -0.000000e+000 0.000000e+000 1.000000e+000
      outer loop
         vertex 6.500000e+001 1.100000e+002 3.800000e+001
         vertex 2.760472e+000 1.089772e+002 3.800000e+001
         vertex 6.175000e+001 1.087990e+002 3.800000e+001
      endloop
   endfacet
   facet normal 0.000000e+000 0.000000e+000 1.000000e+000
      outer loop
         vertex 1.090461e+000 1.986970e+000 3.800000e+001
         vertex 0.000000e+000 0.000000e+000 3.800000e+001
         vertex 1.750000e+000 1.200962e+000 3.800000e+001
      endloop
   endfacet
   facet normal 0.000000e+000 0.000000e+000 1.000000e+000
      outer loop
         vertex 2.760472e+000 1.060228e+002 3.800000e+001
         vertex 4.000000e+000 1.050000e+002 3.800000e+001
         vertex 3.649067e+000 1.065358e+002 3.800000e+001
      endloop
   endfacet
   facet normal 0.000000e+000 0.000000e+000 1.000000e+000
      outer loop
         vertex 1.750000e+000 1.087990e+002 3.800000e+001
         vertex 0.000000e+000 1.100000e+002 3.800000e+001
         vertex 1.090461e+000 1.080130e+002 3.800000e+001
      endloop
   endfacet
   facet normal 0.000000e+000 0.000000e+000 1.000000e+000
      outer loop
         vertex 6.000000e+001 1.050000e+002 3.800000e+001
         vertex 6.175000e+001 1.062010e+002 3.800000e+001
         vertex 6.109046e+001 1.069870e+002 3.800000e+001
      endloop
   endfacet
   facet normal 0.000000e+000 0.000000e+000 1.000000e+000
      outer loop
         vertex 6.500000e+001 0.000000e+000 3.800000e+001
         vertex 6.400000e+001 2.500000e+000 3.800000e+001
         vertex 6.364907e+001 1.535819e+000 3.800000e+001
      endloop
   endfacet
   facet normal 0.000000e+000 0.000000e+000 1.000000e+000
      outer loop
         vertex 6.000000e+001 4.000000e+000 3.800000e+001
         vertex 6.109046e+001 3.013030e+000 3.800000e+001
         vertex 6.000000e+001 5.000000e+000 3.800000e+001
      endloop
   endfacet
   facet normal 0.000000e+000 0.000000e+000 1.000000e+000
      outer loop
         vertex 6.000000e+001 5.000000e+000 3.800000e+001
         vertex 6.276047e+001 3.977212e+000 3.800000e+001
         vertex 6.000000e+001 1.050000e+002 3.800000e+001
      endloop
   endfacet
   facet normal -0.000000e+000 0.000000e+000 1.000000e+000
      outer loop
         vertex 3.250000e+001 4.000000e+000 3.800000e+001
         vertex 4.000000e+000 2.500000e+000 3.800000e+001
         vertex 3.649067e+000 1.535819e+000 3.800000e+001
      endloop
   endfacet
   facet normal 0.000000e+000 0.000000e+000 1.000000e+000
      outer loop
         vertex 5.000000e+000 5.000000e+000 3.800000e+001
         vertex 4.000000e+000 4.000000e+000 3.800000e+001
         vertex 3.250000e+001 4.000000e+000 3.800000e+001
      endloop
   endfacet
   facet normal 0.000000e+000 -0.000000e+000 1.000000e+000
      outer loop
         vertex 3.649067e+000 1.065358e+002 3.800000e+001
         vertex 4.000000e+000 1.050000e+002 3.800000e+001
         vertex 5.000000e+000 1.050000e+002 3.800000e+001
      endloop
   endfacet
   facet normal 0.000000e+000 -0.000000e+000 1.000000e+000
      outer loop
         vertex 6.000000e+001 1.050000e+002 3.800000e+001
         vertex 6.276047e+001 3.977212e+000 3.800000e+001
         vertex 6.276047e+001 1.060228e+002 3.800000e+001
      endloop
   endfacet
   facet normal 0.000000e+000 0.000000e+000 1.000000e+000
      outer loop
         vertex 6.276047e+001 1.060228e+002 3.800000e+001
         vertex 6.276047e+001 3.977212e+000 3.800000e+001
         vertex 6.364907e+001 1.065358e+002 3.800000e+001
      endloop
   endfacet
   facet normal 0.000000e+000 0.000000e+000 1.000000e+000
      outer loop
         vertex 6.500000e+001 0.000000e+000 3.800000e+001
         vertex 6.500000e+001 1.100000e+002 3.800000e+001
         vertex 6.364907e+001 3.464181e+000 3.800000e+001
      endloop
   endfacet
   facet normal -0.000000e+000 -0.000000e+000 1.000000e+000
      outer loop
         vertex 3.649067e+000 1.084642e+002 3.800000e+001
         vertex 4.000000e+000 1.075000e+002 3.800000e+001
         vertex 5.000000e+000 1.050000e+002 3.800000e+001
      endloop
   endfacet
   facet normal 0.000000e+000 0.000000e+000 1.000000e+000
      outer loop
         vertex 6.400000e+001 1.075000e+002 3.800000e+001
         vertex 6.364907e+001 1.065358e+002 3.800000e+001
         vertex 6.500000e+001 1.100000e+002 3.800000e+001
      endloop
   endfacet
   facet normal 0.000000e+000 -0.000000e+000 1.000000e+000
      outer loop
         vertex 6.276047e+001 1.089772e+002 3.800000e+001
         vertex 6.364907e+001 1.084642e+002 3.800000e+001
         vertex 6.500000e+001 1.100000e+002 3.800000e+001
      endloop
   endfacet
   facet normal 0.000000e+000 0.000000e+000 1.000000e+000
      outer loop
         vertex 6.109046e+001 3.013030e+000 3.800000e+001
         vertex 6.175000e+001 3.799038e+000 3.800000e+001
         vertex 6.000000e+001 5.000000e+000 3.800000e+001
      endloop
   endfacet
   facet normal 0.000000e+000 0.000000e+000 1.000000e+000
      outer loop
         vertex 5.000000e+000 5.000000e+000 3.800000e+001
         vertex 5.000000e+000 1.050000e+002 3.800000e+001
         vertex 4.000000e+000 5.500000e+001 3.800000e+001
      endloop
   endfacet
   facet normal 0.000000e+000 -0.000000e+000 1.000000e+000
      outer loop
         vertex 3.250000e+001 4.000000e+000 3.800000e+001
         vertex 6.000000e+001 4.000000e+000 3.800000e+001
         vertex 6.000000e+001 5.000000e+000 3.800000e+001
      endloop
   endfacet
   facet normal 0.000000e+000 0.000000e+000 1.000000e+000
      outer loop
         vertex 3.250000e+001 4.000000e+000 3.800000e+001
         vertex 6.500000e+001 0.000000e+000 3.800000e+001
         vertex 6.175000e+001 1.200962e+000 3.800000e+001
      endloop
   endfacet
   facet normal 0.000000e+000 0.000000e+000 1.000000e+000
      outer loop
         vertex 6.500000e+001 0.000000e+000 3.800000e+001
         vertex 6.276047e+001 1.022788e+000 3.800000e+001
         vertex 6.175000e+001 1.200962e+000 3.800000e+001
      endloop
   endfacet
   facet normal 0.000000e+000 0.000000e+000 1.000000e+000
      outer loop
         vertex 2.760472e+000 3.977212e+000 3.800000e+001
         vertex 4.000000e+000 5.500000e+001 3.800000e+001
         vertex 1.750000e+000 3.799038e+000 3.800000e+001
      endloop
   endfacet
   facet normal 0.000000e+000 0.000000e+000 1.000000e+000
      outer loop
         vertex 6.175000e+001 1.087990e+002 3.800000e+001
         vertex 2.760472e+000 1.089772e+002 3.800000e+001
         vertex 3.649067e+000 1.084642e+002 3.800000e+001
      endloop
   endfacet
   facet normal -0.000000e+000 0.000000e+000 1.000000e+000
      outer loop
         vertex 6.364907e+001 1.065358e+002 3.800000e+001
         vertex 6.276047e+001 3.977212e+000 3.800000e+001
         vertex 6.364907e+001 3.464181e+000 3.800000e+001
      endloop
   endfacet
   facet normal 0.000000e+000 0.000000e+000 1.000000e+000
      outer loop
         vertex 4.000000e+000 5.500000e+001 3.800000e+001
         vertex 5.000000e+000 1.050000e+002 3.800000e+001
         vertex 4.000000e+000 1.050000e+002 3.800000e+001
      endloop
   endfacet
   facet normal 0.000000e+000 0.000000e+000 1.000000e+000
      outer loop
         vertex 6.364907e+001 1.065358e+002 3.800000e+001
         vertex 6.364907e+001 3.464181e+000 3.800000e+001
         vertex 6.500000e+001 1.100000e+002 3.800000e+001
      endloop
   endfacet
   facet normal 0.000000e+000 0.000000e+000 1.000000e+000
      outer loop
         vertex 0.000000e+000 1.100000e+002 3.800000e+001
         vertex 0.000000e+000 0.000000e+000 3.800000e+001
         vertex 4.000000e+000 5.500000e+001 3.800000e+001
      endloop
   endfacet
   facet normal -0.000000e+000 0.000000e+000 1.000000e+000
      outer loop
         vertex 6.000000e+001 4.000000e+000 3.800000e+001
         vertex 3.250000e+001 4.000000e+000 3.800000e+001
         vertex 6.109046e+001 1.986970e+000 3.800000e+001
      endloop
   endfacet
   facet normal 0.000000e+000 -0.000000e+000 1.000000e+000
      outer loop
         vertex 5.000000e+000 1.050000e+002 3.800000e+001
         vertex 6.109046e+001 1.080130e+002 3.800000e+001
         vertex 6.175000e+001 1.087990e+002 3.800000e+001
      endloop
   endfacet
   facet normal -0.000000e+000 0.000000e+000 1.000000e+000
      outer loop
         vertex 3.250000e+001 4.000000e+000 3.800000e+001
         vertex 3.649067e+000 1.535819e+000 3.800000e+001
         vertex 2.760472e+000 1.022788e+000 3.800000e+001
      endloop
   endfacet
   facet normal -0.000000e+000 0.000000e+000 1.000000e+000
      outer loop
         vertex 6.175000e+001 1.087990e+002 3.800000e+001
         vertex 3.649067e+000 1.084642e+002 3.800000e+001
         vertex 5.000000e+000 1.050000e+002 3.800000e+001
      endloop
   endfacet
   facet normal 0.000000e+000 0.000000e+000 1.000000e+000
      outer loop
         vertex 6.109046e+001 1.986970e+000 3.800000e+001
         vertex 3.250000e+001 4.000000e+000 3.800000e+001
         vertex 6.175000e+001 1.200962e+000 3.800000e+001
      endloop
   endfacet
   facet normal 0.000000e+000 0.000000e+000 1.000000e+000
      outer loop
         vertex 4.000000e+000 5.500000e+001 3.800000e+001
         vertex 1.750000e+000 1.062010e+002 3.800000e+001
         vertex 1.090461e+000 1.069870e+002 3.800000e+001
      endloop
   endfacet
   facet normal 0.000000e+000 0.000000e+000 1.000000e+000
      outer loop
         vertex 4.000000e+000 5.500000e+001 3.800000e+001
         vertex 0.000000e+000 0.000000e+000 3.800000e+001
         vertex 1.090461e+000 3.013030e+000 3.800000e+001
      endloop
   endfacet
   facet normal 0.000000e+000 0.000000e+000 1.000000e+000
      outer loop
         vertex 1.750000e+000 3.799038e+000 3.800000e+001
         vertex 4.000000e+000 5.500000e+001 3.800000e+001
         vertex 1.090461e+000 3.013030e+000 3.800000e+001
      endloop
   endfacet
   facet normal 0.000000e+000 0.000000e+000 1.000000e+000
      outer loop
         vertex 0.000000e+000 1.100000e+002 3.800000e+001
         vertex 4.000000e+000 5.500000e+001 3.800000e+001
         vertex 1.090461e+000 1.069870e+002 3.800000e+001
      endloop
   endfacet
   facet normal -1.000000e+000 0.000000e+000 0.000000e+000
      outer loop
         vertex 0.000000e+000 1.100000e+002 0.000000e+000
         vertex 0.000000e+000 0.000000e+000 0.000000e+000
         vertex 0.000000e+000 2.175000e+001 1.625000e+001
      endloop
   endfacet
   facet normal -1.000000e+000 -0.000000e+000 0.000000e+000
      outer loop
         vertex 0.000000e+000 0.000000e+000 3.800000e+001
         vertex 0.000000e+000 1.100000e+002 3.800000e+001
         vertex 0.000000e+000 2.175000e+001 1.975000e+001
      endloop
   endfacet
   facet normal -1.000000e+000 0.000000e+000 0.000000e+000
      outer loop
         vertex 0.000000e+000 1.887512e+001 1.665942e+001
         vertex 0.000000e+000 2.000000e+001 1.625000e+001
         vertex 0.000000e+000 1.825000e+001 1.625000e+001
      endloop
   endfacet
   facet normal -1.000000e+000 0.000000e+000 -0.000000e+000
      outer loop
         vertex 0.000000e+000 2.112488e+001 1.665942e+001
         vertex 0.000000e+000 2.172341e+001 1.769612e+001
         vertex 0.000000e+000 2.175000e+001 1.625000e+001
      endloop
   endfacet
   facet normal -1.000000e+000 0.000000e+000 0.000000e+000
      outer loop
         vertex 0.000000e+000 2.151554e+001 1.887500e+001
         vertex 0.000000e+000 2.059854e+001 1.964446e+001
         vertex 0.000000e+000 2.175000e+001 1.975000e+001
      endloop
   endfacet
   facet normal -1.000000e+000 0.000000e+000 0.000000e+000
      outer loop
         vertex 0.000000e+000 1.940146e+001 1.964446e+001
         vertex 0.000000e+000 1.848446e+001 1.887500e+001
         vertex 0.000000e+000 1.825000e+001 1.975000e+001
      endloop
   endfacet
   facet normal -1.000000e+000 -0.000000e+000 0.000000e+000
      outer loop
         vertex 0.000000e+000 1.827659e+001 1.769612e+001
         vertex 0.000000e+000 1.887512e+001 1.665942e+001
         vertex 0.000000e+000 1.825000e+001 1.625000e+001
      endloop
   endfacet
   facet normal -1.000000e+000 -0.000000e+000 0.000000e+000
      outer loop
         vertex 0.000000e+000 1.825000e+001 1.975000e+001
         vertex 0.000000e+000 2.175000e+001 1.975000e+001
         vertex 0.000000e+000 2.059854e+001 1.964446e+001
      endloop
   endfacet
   facet normal -1.000000e+000 0.000000e+000 0.000000e+000
      outer loop
         vertex 0.000000e+000 1.825000e+001 1.625000e+001
         vertex 0.000000e+000 1.825000e+001 1.975000e+001
         vertex 0.000000e+000 1.827659e+001 1.769612e+001
      endloop
   endfacet
   facet normal -1.000000e+000 0.000000e+000 0.000000e+000
      outer loop
         vertex 0.000000e+000 1.100000e+002 0.000000e+000
         vertex 0.000000e+000 2.175000e+001 1.625000e+001
         vertex 0.000000e+000 2.175000e+001 1.975000e+001
      endloop
   endfacet
   facet normal -1.000000e+000 -0.000000e+000 0.000000e+000
      outer loop
         vertex 0.000000e+000 1.825000e+001 1.625000e+001
         vertex 0.000000e+000 2.000000e+001 1.625000e+001
         vertex 0.000000e+000 0.000000e+000 0.000000e+000
      endloop
   endfacet
   facet normal -1.000000e+000 0.000000e+000 0.000000e+000
      outer loop
         vertex 0.000000e+000 2.175000e+001 1.625000e+001
         vertex 0.000000e+000 2.172341e+001 1.769612e+001
         vertex 0.000000e+000 2.175000e+001 1.975000e+001
      endloop
   endfacet
   facet normal -1.000000e+000 -0.000000e+000 0.000000e+000
      outer loop
         vertex 0.000000e+000 1.825000e+001 1.975000e+001
         vertex 0.000000e+000 1.848446e+001 1.887500e+001
         vertex 0.000000e+000 1.827659e+001 1.769612e+001
      endloop
   endfacet
   facet normal -1.000000e+000 0.000000e+000 0.000000e+000
      outer loop
         vertex 0.000000e+000 1.825000e+001 1.625000e+001
         vertex 0.000000e+000 0.000000e+000 0.000000e+000
         vertex 0.000000e+000 1.825000e+001 1.975000e+001
      endloop
   endfacet
   facet normal -1.000000e+000 0.000000e+000 0.000000e+000
      outer loop
         vertex 0.000000e+000 1.825000e+001 1.975000e+001
         vertex 0.000000e+000 0.000000e+000 0.000000e+000
         vertex 0.000000e+000 0.000000e+000 3.800000e+001
      endloop
   endfacet
   facet normal -1.000000e+000 0.000000e+000 0.000000e+000
      outer loop
         vertex 0.000000e+000 1.100000e+002 3.800000e+001
         vertex 0.000000e+000 1.100000e+002 0.000000e+000
         vertex 0.000000e+000 2.175000e+001 1.975000e+001
      endloop
   endfacet
   facet normal -1.000000e+000 0.000000e+000 0.000000e+000
      outer loop
         vertex 0.000000e+000 2.172341e+001 1.769612e+001
         vertex 0.000000e+000 2.151554e+001 1.887500e+001
         vertex 0.000000e+000 2.175000e+001 1.975000e+001
      endloop
   endfacet
   facet normal -1.000000e+000 0.000000e+000 0.000000e+000
      outer loop
         vertex 0.000000e+000 2.175000e+001 1.625000e+001
         vertex 0.000000e+000 0.000000e+000 0.000000e+000
         vertex 0.000000e+000 2.000000e+001 1.625000e+001
      endloop
   endfacet
   facet normal -1.000000e+000 0.000000e+000 0.000000e+000
      outer loop
         vertex 0.000000e+000 2.112488e+001 1.665942e+001
         vertex 0.000000e+000 2.175000e+001 1.625000e+001
         vertex 0.000000e+000 2.000000e+001 1.625000e+001
      endloop
   endfacet
   facet normal -1.000000e+000 0.000000e+000 0.000000e+000
      outer loop
         vertex 0.000000e+000 1.825000e+001 1.975000e+001
         vertex 0.000000e+000 0.000000e+000 3.800000e+001
         vertex 0.000000e+000 2.175000e+001 1.975000e+001
      endloop
   endfacet
   facet normal -1.000000e+000 0.000000e+000 0.000000e+000
      outer loop
         vertex 0.000000e+000 2.059854e+001 1.964446e+001
         vertex 0.000000e+000 1.940146e+001 1.964446e+001
         vertex 0.000000e+000 1.825000e+001 1.975000e+001
      endloop
   endfacet
   facet normal -0.000000e+000 -0.000000e+000 -1.000000e+000
      outer loop
         vertex 0.000000e+000 1.100000e+002 0.000000e+000
         vertex 6.500000e+001 1.100000e+002 0.000000e+000
         vertex 6.500000e+001 0.000000e+000 0.000000e+000
      endloop
   endfacet
   facet normal 0.000000e+000 0.000000e+000 -1.000000e+000
      outer loop
         vertex 0.000000e+000 1.100000e+002 0.000000e+000
         vertex 6.500000e+001 0.000000e+000 0.000000e+000
         vertex 0.000000e+000 0.000000e+000 0.000000e+000
      endloop
   endfacet
   facet normal 0.000000e+000 0.000000e+000 -1.000000e+000
      outer loop
         vertex 5.800000e+001 1.050000e+002 1.900000e+001
         vertex 7.000000e+000 1.050000e+002 1.900000e+001
         vertex 7.000000e+000 1.100000e+002 1.900000e+001
      endloop
   endfacet
   facet normal 0.000000e+000 0.000000e+000 -1.000000e+000
      outer loop
         vertex 5.800000e+001 1.050000e+002 1.900000e+001
         vertex 7.000000e+000 1.100000e+002 1.900000e+001
         vertex 5.800000e+001 1.100000e+002 1.900000e+001
      endloop
   endfacet
   facet normal 0.000000e+000 3.420200e-001 9.396927e-001
      outer loop
         vertex 5.000000e+000 1.887512e+001 1.665942e+001
         vertex 5.000000e+000 2.000000e+001 1.625000e+001
         vertex 0.000000e+000 2.000000e+001 1.625000e+001
      endloop
   endfacet
   facet normal 0.000000e+000 9.848078e-001 -1.736477e-001
      outer loop
         vertex 0.000000e+000 1.848446e+001 1.887500e+001
         vertex 5.000000e+000 1.848446e+001 1.887500e+001
         vertex 5.000000e+000 1.827659e+001 1.769612e+001
      endloop
   endfacet
   facet normal -0.000000e+000 -0.000000e+000 -1.000000e+000
      outer loop
         vertex 0.000000e+000 2.059854e+001 1.964446e+001
         vertex 5.000000e+000 2.059854e+001 1.964446e+001
         vertex 5.000000e+000 1.940146e+001 1.964446e+001
      endloop
   endfacet
   facet normal -0.000000e+000 -9.848078e-001 -1.736477e-001
      outer loop
         vertex 0.000000e+000 2.172341e+001 1.769612e+001
         vertex 5.000000e+000 2.172341e+001 1.769612e+001
         vertex 5.000000e+000 2.151554e+001 1.887500e+001
      endloop
   endfacet
   facet normal 0.000000e+000 -3.420200e-001 9.396927e-001
      outer loop
         vertex 0.000000e+000 2.000000e+001 1.625000e+001
         vertex 5.000000e+000 2.000000e+001 1.625000e+001
         vertex 5.000000e+000 2.112488e+001 1.665942e+001
      endloop
   endfacet
   facet normal 0.000000e+000 -8.660253e-001 5.000001e-001
      outer loop
         vertex 5.000000e+000 2.172341e+001 1.769612e+001
         vertex 0.000000e+000 2.172341e+001 1.769612e+001
         vertex 0.000000e+000 2.112488e+001 1.665942e+001
      endloop
   endfacet
   facet normal 0.000000e+000 -6.427878e-001 -7.660443e-001
      outer loop
         vertex 5.000000e+000 2.059854e+001 1.964446e+001
         vertex 0.000000e+000 2.059854e+001 1.964446e+001
         vertex 0.000000e+000 2.151554e+001 1.887500e+001
      endloop
   endfacet
   facet normal 0.000000e+000 6.427878e-001 -7.660443e-001
      outer loop
         vertex 5.000000e+000 1.848446e+001 1.887500e+001
         vertex 0.000000e+000 1.848446e+001 1.887500e+001
         vertex 0.000000e+000 1.940146e+001 1.964446e+001
      endloop
   endfacet
   facet normal -0.000000e+000 8.660253e-001 5.000001e-001
      outer loop
         vertex 5.000000e+000 1.887512e+001 1.665942e+001
         vertex 0.000000e+000 1.887512e+001 1.665942e+001
         vertex 0.000000e+000 1.827659e+001 1.769612e+001
      endloop
   endfacet
   facet normal 0.000000e+000 3.420200e-001 9.396927e-001
      outer loop
         vertex 0.000000e+000 1.887512e+001 1.665942e+001
         vertex 5.000000e+000 1.887512e+001 1.665942e+001
         vertex 0.000000e+000 2.000000e+001 1.625000e+001
      endloop
   endfacet
   facet normal 0.000000e+000 -9.848078e-001 -1.736477e-001
      outer loop
         vertex 0.000000e+000 2.151554e+001 1.887500e+001
         vertex 0.000000e+000 2.172341e+001 1.769612e+001
         vertex 5.000000e+000 2.151554e+001 1.887500e+001
      endloop
   endfacet
   facet normal 0.000000e+000 -6.427878e-001 -7.660443e-001
      outer loop
         vertex 5.000000e+000 2.151554e+001 1.887500e+001
         vertex 5.000000e+000 2.059854e+001 1.964446e+001
         vertex 0.000000e+000 2.151554e+001 1.887500e+001
      endloop
   endfacet
   facet normal 0.000000e+000 8.660253e-001 5.000001e-001
      outer loop
         vertex 0.000000e+000 1.827659e+001 1.769612e+001
         vertex 5.000000e+000 1.827659e+001 1.769612e+001
         vertex 5.000000e+000 1.887512e+001 1.665942e+001
      endloop
   endfacet
   facet normal 0.000000e+000 -8.660253e-001 5.000001e-001
      outer loop
         vertex 0.000000e+000 2.112488e+001 1.665942e+001
         vertex 5.000000e+000 2.112488e+001 1.665942e+001
         vertex 5.000000e+000 2.172341e+001 1.769612e+001
      endloop
   endfacet
   facet normal 0.000000e+000 0.000000e+000 -1.000000e+000
      outer loop
         vertex 5.000000e+000 1.940146e+001 1.964446e+001
         vertex 0.000000e+000 1.940146e+001 1.964446e+001
         vertex 0.000000e+000 2.059854e+001 1.964446e+001
      endloop
   endfacet
   facet normal 0.000000e+000 9.848078e-001 -1.736477e-001
      outer loop
         vertex 0.000000e+000 1.827659e+001 1.769612e+001
         vertex 0.000000e+000 1.848446e+001 1.887500e+001
         vertex 5.000000e+000 1.827659e+001 1.769612e+001
      endloop
   endfacet
   facet normal 0.000000e+000 -3.420200e-001 9.396927e-001
      outer loop
         vertex 0.000000e+000 2.000000e+001 1.625000e+001
         vertex 5.000000e+000 2.112488e+001 1.665942e+001
         vertex 0.000000e+000 2.112488e+001 1.665942e+001
      endloop
   endfacet
   facet normal 0.000000e+000 6.427878e-001 -7.660443e-001
      outer loop
         vertex 0.000000e+000 1.940146e+001 1.964446e+001
         vertex 5.000000e+000 1.940146e+001 1.964446e+001
         vertex 5.000000e+000 1.848446e+001 1.887500e+001
      endloop
   endfacet
   facet normal -9.396926e-001 -3.420201e-001 0.000000e+000
      outer loop
         vertex 3.649067e+000 3.464181e+000 3.100000e+001
         vertex 4.000000e+000 2.500000e+000 3.100000e+001
         vertex 4.000000e+000 2.500000e+000 3.800000e+001
      endloop
   endfacet
   facet normal 1.736482e-001 -9.848078e-001 0.000000e+000
      outer loop
         vertex 1.750000e+000 3.799038e+000 3.800000e+001
         vertex 1.750000e+000 3.799038e+000 3.100000e+001
         vertex 2.760472e+000 3.977212e+000 3.100000e+001
      endloop
   endfacet
   facet normal 1.000000e+000 0.000000e+000 0.000000e+000
      outer loop
         vertex 1.090461e+000 1.986970e+000 3.800000e+001
         vertex 1.090461e+000 1.986970e+000 3.100000e+001
         vertex 1.090461e+000 3.013030e+000 3.100000e+001
      endloop
   endfacet
   facet normal 1.736482e-001 9.848078e-001 -0.000000e+000
      outer loop
         vertex 2.760472e+000 1.022788e+000 3.800000e+001
         vertex 2.760472e+000 1.022788e+000 3.100000e+001
         vertex 1.750000e+000 1.200962e+000 3.100000e+001
      endloop
   endfacet
   facet normal -9.396926e-001 3.420201e-001 0.000000e+000
      outer loop
         vertex 4.000000e+000 2.500000e+000 3.800000e+001
         vertex 4.000000e+000 2.500000e+000 3.100000e+001
         vertex 3.649067e+000 1.535819e+000 3.100000e+001
      endloop
   endfacet
   facet normal -5.000000e-001 8.660254e-001 0.000000e+000
      outer loop
         vertex 2.760472e+000 1.022788e+000 3.100000e+001
         vertex 2.760472e+000 1.022788e+000 3.800000e+001
         vertex 3.649067e+000 1.535819e+000 3.800000e+001
      endloop
   endfacet
   facet normal 7.660444e-001 6.427876e-001 0.000000e+000
      outer loop
         vertex 1.090461e+000 1.986970e+000 3.100000e+001
         vertex 1.090461e+000 1.986970e+000 3.800000e+001
         vertex 1.750000e+000 1.200962e+000 3.800000e+001
      endloop
   endfacet
   facet normal 7.660444e-001 -6.427876e-001 0.000000e+000
      outer loop
         vertex 1.750000e+000 3.799038e+000 3.100000e+001
         vertex 1.750000e+000 3.799038e+000 3.800000e+001
         vertex 1.090461e+000 3.013030e+000 3.800000e+001
      endloop
   endfacet
   facet normal -5.000001e-001 -8.660254e-001 -0.000000e+000
      outer loop
         vertex 3.649067e+000 3.464181e+000 3.100000e+001
         vertex 3.649067e+000 3.464181e+000 3.800000e+001
         vertex 2.760472e+000 3.977212e+000 3.800000e+001
      endloop
   endfacet
   facet normal -9.396926e-001 -3.420201e-001 0.000000e+000
      outer loop
         vertex 3.649067e+000 3.464181e+000 3.800000e+001
         vertex 3.649067e+000 3.464181e+000 3.100000e+001
         vertex 4.000000e+000 2.500000e+000 3.800000e+001
      endloop
   endfacet
   facet normal 1.736482e-001 9.848078e-001 0.000000e+000
      outer loop
         vertex 1.750000e+000 1.200962e+000 3.800000e+001
         vertex 2.760472e+000 1.022788e+000 3.800000e+001
         vertex 1.750000e+000 1.200962e+000 3.100000e+001
      endloop
   endfacet
   facet normal 7.660444e-001 6.427876e-001 0.000000e+000
      outer loop
         vertex 1.750000e+000 1.200962e+000 3.100000e+001
         vertex 1.090461e+000 1.986970e+000 3.100000e+001
         vertex 1.750000e+000 1.200962e+000 3.800000e+001
      endloop
   endfacet
   facet normal -5.000001e-001 -8.660254e-001 0.000000e+000
      outer loop
         vertex 2.760472e+000 3.977212e+000 3.800000e+001
         vertex 2.760472e+000 3.977212e+000 3.100000e+001
         vertex 3.649067e+000 3.464181e+000 3.100000e+001
      endloop
   endfacet
   facet normal -5.000000e-001 8.660254e-001 0.000000e+000
      outer loop
         vertex 3.649067e+000 1.535819e+000 3.800000e+001
         vertex 3.649067e+000 1.535819e+000 3.100000e+001
         vertex 2.760472e+000 1.022788e+000 3.100000e+001
      endloop
   endfacet
   facet normal 1.000000e+000 0.000000e+000 0.000000e+000
      outer loop
         vertex 1.090461e+000 3.013030e+000 3.100000e+001
         vertex 1.090461e+000 3.013030e+000 3.800000e+001
         vertex 1.090461e+000 1.986970e+000 3.800000e+001
      endloop
   endfacet
   facet normal 1.736482e-001 -9.848078e-001 0.000000e+000
      outer loop
         vertex 2.760472e+000 3.977212e+000 3.800000e+001
         vertex 1.750000e+000 3.799038e+000 3.800000e+001
         vertex 2.760472e+000 3.977212e+000 3.100000e+001
      endloop
   endfacet
   facet normal -9.396926e-001 3.420201e-001 0.000000e+000
      outer loop
         vertex 4.000000e+000 2.500000e+000 3.800000e+001
         vertex 3.649067e+000 1.535819e+000 3.100000e+001
         vertex 3.649067e+000 1.535819e+000 3.800000e+001
      endloop
   endfacet
   facet normal 7.660444e-001 -6.427876e-001 0.000000e+000
      outer loop
         vertex 1.090461e+000 3.013030e+000 3.800000e+001
         vertex 1.090461e+000 3.013030e+000 3.100000e+001
         vertex 1.750000e+000 3.799038e+000 3.100000e+001
      endloop
   endfacet
   facet normal -9.396925e-001 -3.420206e-001 0.000000e+000
      outer loop
         vertex 3.649067e+000 1.084642e+002 3.100000e+001
         vertex 4.000000e+000 1.075000e+002 3.100000e+001
         vertex 4.000000e+000 1.075000e+002 3.800000e+001
      endloop
   endfacet
   facet normal 1.736441e-001 -9.848085e-001 0.000000e+000
      outer loop
         vertex 1.750000e+000 1.087990e+002 3.800000e+001
         vertex 1.750000e+000 1.087990e+002 3.100000e+001
         vertex 2.760472e+000 1.089772e+002 3.100000e+001
      endloop
   endfacet
   facet normal 1.000000e+000 0.000000e+000 0.000000e+000
      outer loop
         vertex 1.090461e+000 1.069870e+002 3.800000e+001
         vertex 1.090461e+000 1.069870e+002 3.100000e+001
         vertex 1.090461e+000 1.080130e+002 3.100000e+001
      endloop
   endfacet
   facet normal 1.736441e-001 9.848085e-001 -0.000000e+000
      outer loop
         vertex 2.760472e+000 1.060228e+002 3.800000e+001
         vertex 2.760472e+000 1.060228e+002 3.100000e+001
         vertex 1.750000e+000 1.062010e+002 3.100000e+001
      endloop
   endfacet
   facet normal -9.396925e-001 3.420206e-001 0.000000e+000
      outer loop
         vertex 4.000000e+000 1.075000e+002 3.800000e+001
         vertex 4.000000e+000 1.075000e+002 3.100000e+001
         vertex 3.649067e+000 1.065358e+002 3.100000e+001
      endloop
   endfacet
   facet normal -5.000006e-001 8.660251e-001 0.000000e+000
      outer loop
         vertex 2.760472e+000 1.060228e+002 3.100000e+001
         vertex 2.760472e+000 1.060228e+002 3.800000e+001
         vertex 3.649067e+000 1.065358e+002 3.800000e+001
      endloop
   endfacet
   facet normal 7.660456e-001 6.427863e-001 0.000000e+000
      outer loop
         vertex 1.090461e+000 1.069870e+002 3.100000e+001
         vertex 1.090461e+000 1.069870e+002 3.800000e+001
         vertex 1.750000e+000 1.062010e+002 3.800000e+001
      endloop
   endfacet
   facet normal 7.660456e-001 -6.427863e-001 0.000000e+000
      outer loop
         vertex 1.750000e+000 1.087990e+002 3.100000e+001
         vertex 1.750000e+000 1.087990e+002 3.800000e+001
         vertex 1.090461e+000 1.080130e+002 3.800000e+001
      endloop
   endfacet
   facet normal -5.000006e-001 -8.660251e-001 -0.000000e+000
      outer loop
         vertex 3.649067e+000 1.084642e+002 3.100000e+001
         vertex 3.649067e+000 1.084642e+002 3.800000e+001
         vertex 2.760472e+000 1.089772e+002 3.800000e+001
      endloop
   endfacet
   facet normal -9.396925e-001 -3.420206e-001 0.000000e+000
      outer loop
         vertex 3.649067e+000 1.084642e+002 3.800000e+001
         vertex 3.649067e+000 1.084642e+002 3.100000e+001
         vertex 4.000000e+000 1.075000e+002 3.800000e+001
      endloop
   endfacet
   facet normal 1.736441e-001 9.848085e-001 0.000000e+000
      outer loop
         vertex 1.750000e+000 1.062010e+002 3.800000e+001
         vertex 2.760472e+000 1.060228e+002 3.800000e+001
         vertex 1.750000e+000 1.062010e+002 3.100000e+001
      endloop
   endfacet
   facet normal 7.660456e-001 6.427863e-001 0.000000e+000
      outer loop
         vertex 1.750000e+000 1.062010e+002 3.100000e+001
         vertex 1.090461e+000 1.069870e+002 3.100000e+001
         vertex 1.750000e+000 1.062010e+002 3.800000e+001
      endloop
   endfacet
   facet normal -5.000006e-001 -8.660251e-001 0.000000e+000
      outer loop
         vertex 2.760472e+000 1.089772e+002 3.800000e+001
         vertex 2.760472e+000 1.089772e+002 3.100000e+001
         vertex 3.649067e+000 1.084642e+002 3.100000e+001
      endloop
   endfacet
   facet normal -5.000006e-001 8.660251e-001 0.000000e+000
      outer loop
         vertex 3.649067e+000 1.065358e+002 3.800000e+001
         vertex 3.649067e+000 1.065358e+002 3.100000e+001
         vertex 2.760472e+000 1.060228e+002 3.100000e+001
      endloop
   endfacet
   facet normal 1.000000e+000 0.000000e+000 0.000000e+000
      outer loop
         vertex 1.090461e+000 1.080130e+002 3.100000e+001
         vertex 1.090461e+000 1.080130e+002 3.800000e+001
         vertex 1.090461e+000 1.069870e+002 3.800000e+001
      endloop
   endfacet
   facet normal 1.736441e-001 -9.848085e-001 0.000000e+000
      outer loop
         vertex 2.760472e+000 1.089772e+002 3.800000e+001
         vertex 1.750000e+000 1.087990e+002 3.800000e+001
         vertex 2.760472e+000 1.089772e+002 3.100000e+001
      endloop
   endfacet
   facet normal -9.396925e-001 3.420206e-001 0.000000e+000
      outer loop
         vertex 4.000000e+000 1.075000e+002 3.800000e+001
         vertex 3.649067e+000 1.065358e+002 3.100000e+001
         vertex 3.649067e+000 1.065358e+002 3.800000e+001
      endloop
   endfacet
   facet normal 7.660456e-001 -6.427863e-001 0.000000e+000
      outer loop
         vertex 1.090461e+000 1.080130e+002 3.800000e+001
         vertex 1.090461e+000 1.080130e+002 3.100000e+001
         vertex 1.750000e+000 1.087990e+002 3.100000e+001
      endloop
   endfacet
   facet normal -9.396925e-001 -3.420204e-001 0.000000e+000
      outer loop
         vertex 6.364907e+001 1.084642e+002 3.100000e+001
         vertex 6.400000e+001 1.075000e+002 3.100000e+001
         vertex 6.400000e+001 1.075000e+002 3.800000e+001
      endloop
   endfacet
   facet normal 1.736443e-001 -9.848084e-001 0.000000e+000
      outer loop
         vertex 6.175000e+001 1.087990e+002 3.800000e+001
         vertex 6.175000e+001 1.087990e+002 3.100000e+001
         vertex 6.276047e+001 1.089772e+002 3.100000e+001
      endloop
   endfacet
   facet normal 1.000000e+000 0.000000e+000 0.000000e+000
      outer loop
         vertex 6.109046e+001 1.069870e+002 3.800000e+001
         vertex 6.109046e+001 1.069870e+002 3.100000e+001
         vertex 6.109046e+001 1.080130e+002 3.100000e+001
      endloop
   endfacet
   facet normal 1.736443e-001 9.848084e-001 -0.000000e+000
      outer loop
         vertex 6.276047e+001 1.060228e+002 3.800000e+001
         vertex 6.276047e+001 1.060228e+002 3.100000e+001
         vertex 6.175000e+001 1.062010e+002 3.100000e+001
      endloop
   endfacet
   facet normal -9.396925e-001 3.420204e-001 0.000000e+000
      outer loop
         vertex 6.400000e+001 1.075000e+002 3.800000e+001
         vertex 6.400000e+001 1.075000e+002 3.100000e+001
         vertex 6.364907e+001 1.065358e+002 3.100000e+001
      endloop
   endfacet
   facet normal -5.000001e-001 8.660254e-001 0.000000e+000
      outer loop
         vertex 6.276047e+001 1.060228e+002 3.100000e+001
         vertex 6.276047e+001 1.060228e+002 3.800000e+001
         vertex 6.364907e+001 1.065358e+002 3.800000e+001
      endloop
   endfacet
   facet normal 7.660459e-001 6.427859e-001 0.000000e+000
      outer loop
         vertex 6.109046e+001 1.069870e+002 3.100000e+001
         vertex 6.109046e+001 1.069870e+002 3.800000e+001
         vertex 6.175000e+001 1.062010e+002 3.800000e+001
      endloop
   endfacet
   facet normal 7.660459e-001 -6.427859e-001 0.000000e+000
      outer loop
         vertex 6.175000e+001 1.087990e+002 3.100000e+001
         vertex 6.175000e+001 1.087990e+002 3.800000e+001
         vertex 6.109046e+001 1.080130e+002 3.800000e+001
      endloop
   endfacet
   facet normal -5.000001e-001 -8.660254e-001 -0.000000e+000
      outer loop
         vertex 6.364907e+001 1.084642e+002 3.100000e+001
         vertex 6.364907e+001 1.084642e+002 3.800000e+001
         vertex 6.276047e+001 1.089772e+002 3.800000e+001
      endloop
   endfacet
   facet normal -9.396925e-001 -3.420204e-001 0.000000e+000
      outer loop
         vertex 6.364907e+001 1.084642e+002 3.800000e+001
         vertex 6.364907e+001 1.084642e+002 3.100000e+001
         vertex 6.400000e+001 1.075000e+002 3.800000e+001
      endloop
   endfacet
   facet normal 1.736443e-001 9.848084e-001 0.000000e+000
      outer loop
         vertex 6.175000e+001 1.062010e+002 3.800000e+001
         vertex 6.276047e+001 1.060228e+002 3.800000e+001
         vertex 6.175000e+001 1.062010e+002 3.100000e+001
      endloop
   endfacet
   facet normal 7.660459e-001 6.427859e-001 0.000000e+000
      outer loop
         vertex 6.175000e+001 1.062010e+002 3.100000e+001
         vertex 6.109046e+001 1.069870e+002 3.100000e+001
         vertex 6.175000e+001 1.062010e+002 3.800000e+001
      endloop
   endfacet
   facet normal -5.000001e-001 -8.660254e-001 0.000000e+000
      outer loop
         vertex 6.276047e+001 1.089772e+002 3.800000e+001
         vertex 6.276047e+001 1.089772e+002 3.100000e+001
         vertex 6.364907e+001 1.084642e+002 3.100000e+001
      endloop
   endfacet
   facet normal -5.000001e-001 8.660254e-001 0.000000e+000
      outer loop
         vertex 6.364907e+001 1.065358e+002 3.800000e+001
         vertex 6.364907e+001 1.065358e+002 3.100000e+001
         vertex 6.276047e+001 1.060228e+002 3.100000e+001
      endloop
   endfacet
   facet normal 1.000000e+000 0.000000e+000 0.000000e+000
      outer loop
         vertex 6.109046e+001 1.080130e+002 3.100000e+001
         vertex 6.109046e+001 1.080130e+002 3.800000e+001
         vertex 6.109046e+001 1.069870e+002 3.800000e+001
      endloop
   endfacet
   facet normal 1.736443e-001 -9.848084e-001 0.000000e+000
      outer loop
         vertex 6.276047e+001 1.089772e+002 3.800000e+001
         vertex 6.175000e+001 1.087990e+002 3.800000e+001
         vertex 6.276047e+001 1.089772e+002 3.100000e+001
      endloop
   endfacet
   facet normal -9.396925e-001 3.420204e-001 0.000000e+000
      outer loop
         vertex 6.400000e+001 1.075000e+002 3.800000e+001
         vertex 6.364907e+001 1.065358e+002 3.100000e+001
         vertex 6.364907e+001 1.065358e+002 3.800000e+001
      endloop
   endfacet
   facet normal 7.660459e-001 -6.427859e-001 0.000000e+000
      outer loop
         vertex 6.109046e+001 1.080130e+002 3.800000e+001
         vertex 6.109046e+001 1.080130e+002 3.100000e+001
         vertex 6.175000e+001 1.087990e+002 3.100000e+001
      endloop
   endfacet
   facet normal -9.396927e-001 -3.420199e-001 0.000000e+000
      outer loop
         vertex 6.364907e+001 3.464181e+000 3.100000e+001
         vertex 6.400000e+001 2.500000e+000 3.100000e+001
         vertex 6.400000e+001 2.500000e+000 3.800000e+001
      endloop
   endfacet
   facet normal 1.736483e-001 -9.848077e-001 0.000000e+000
      outer loop
         vertex 6.175000e+001 3.799038e+000 3.800000e+001
         vertex 6.175000e+001 3.799038e+000 3.100000e+001
         vertex 6.276047e+001 3.977212e+000 3.100000e+001
      endloop
   endfacet
   facet normal 1.000000e+000 0.000000e+000 0.000000e+000
      outer loop
         vertex 6.109046e+001 1.986970e+000 3.800000e+001
         vertex 6.109046e+001 1.986970e+000 3.100000e+001
         vertex 6.109046e+001 3.013030e+000 3.100000e+001
      endloop
   endfacet
   facet normal 1.736483e-001 9.848077e-001 -0.000000e+000
      outer loop
         vertex 6.276047e+001 1.022788e+000 3.800000e+001
         vertex 6.276047e+001 1.022788e+000 3.100000e+001
         vertex 6.175000e+001 1.200962e+000 3.100000e+001
      endloop
   endfacet
   facet normal -9.396927e-001 3.420199e-001 0.000000e+000
      outer loop
         vertex 6.400000e+001 2.500000e+000 3.800000e+001
         vertex 6.400000e+001 2.500000e+000 3.100000e+001
         vertex 6.364907e+001 1.535819e+000 3.100000e+001
      endloop
   endfacet
   facet normal -4.999995e-001 8.660257e-001 0.000000e+000
      outer loop
         vertex 6.276047e+001 1.022788e+000 3.100000e+001
         vertex 6.276047e+001 1.022788e+000 3.800000e+001
         vertex 6.364907e+001 1.535819e+000 3.800000e+001
      endloop
   endfacet
   facet normal 7.660448e-001 6.427872e-001 0.000000e+000
      outer loop
         vertex 6.109046e+001 1.986970e+000 3.100000e+001
         vertex 6.109046e+001 1.986970e+000 3.800000e+001
         vertex 6.175000e+001 1.200962e+000 3.800000e+001
      endloop
   endfacet
   facet normal 7.660448e-001 -6.427872e-001 0.000000e+000
      outer loop
         vertex 6.175000e+001 3.799038e+000 3.100000e+001
         vertex 6.175000e+001 3.799038e+000 3.800000e+001
         vertex 6.109046e+001 3.013030e+000 3.800000e+001
      endloop
   endfacet
   facet normal -4.999996e-001 -8.660257e-001 -0.000000e+000
      outer loop
         vertex 6.364907e+001 3.464181e+000 3.100000e+001
         vertex 6.364907e+001 3.464181e+000 3.800000e+001
         vertex 6.276047e+001 3.977212e+000 3.800000e+001
      endloop
   endfacet
   facet normal -9.396927e-001 -3.420199e-001 0.000000e+000
      outer loop
         vertex 6.364907e+001 3.464181e+000 3.800000e+001
         vertex 6.364907e+001 3.464181e+000 3.100000e+001
         vertex 6.400000e+001 2.500000e+000 3.800000e+001
      endloop
   endfacet
   facet normal 1.736483e-001 9.848077e-001 0.000000e+000
      outer loop
         vertex 6.175000e+001 1.200962e+000 3.800000e+001
         vertex 6.276047e+001 1.022788e+000 3.800000e+001
         vertex 6.175000e+001 1.200962e+000 3.100000e+001
      endloop
   endfacet
   facet normal 7.660448e-001 6.427872e-001 0.000000e+000
      outer loop
         vertex 6.175000e+001 1.200962e+000 3.100000e+001
         vertex 6.109046e+001 1.986970e+000 3.100000e+001
         vertex 6.175000e+001 1.200962e+000 3.800000e+001
      endloop
   endfacet
   facet normal -4.999996e-001 -8.660257e-001 0.000000e+000
      outer loop
         vertex 6.276047e+001 3.977212e+000 3.800000e+001
         vertex 6.276047e+001 3.977212e+000 3.100000e+001
         vertex 6.364907e+001 3.464181e+000 3.100000e+001
      endloop
   endfacet
   facet normal -4.999995e-001 8.660257e-001 0.000000e+000
      outer loop
         vertex 6.364907e+001 1.535819e+000 3.800000e+001
         vertex 6.364907e+001 1.535819e+000 3.100000e+001
         vertex 6.276047e+001 1.022788e+000 3.100000e+001
      endloop
   endfacet
   facet normal 1.000000e+000 0.000000e+000 0.000000e+000
      outer loop
         vertex 6.109046e+001 3.013030e+000 3.100000e+001
         vertex 6.109046e+001 3.013030e+000 3.800000e+001
         vertex 6.109046e+001 1.986970e+000 3.800000e+001
      endloop
   endfacet
   facet normal 1.736483e-001 -9.848077e-001 0.000000e+000
      outer loop
         vertex 6.276047e+001 3.977212e+000 3.800000e+001
         vertex 6.175000e+001 3.799038e+000 3.800000e+001
         vertex 6.276047e+001 3.977212e+000 3.100000e+001
      endloop
   endfacet
   facet normal -9.396927e-001 3.420199e-001 0.000000e+000
      outer loop
         vertex 6.400000e+001 2.500000e+000 3.800000e+001
         vertex 6.364907e+001 1.535819e+000 3.100000e+001
         vertex 6.364907e+001 1.535819e+000 3.800000e+001
      endloop
   endfacet
   facet normal 7.660448e-001 -6.427872e-001 0.000000e+000
      outer loop
         vertex 6.109046e+001 3.013030e+000 3.800000e+001
         vertex 6.109046e+001 3.013030e+000 3.100000e+001
         vertex 6.175000e+001 3.799038e+000 3.100000e+001
      endloop
   endfacet
   facet normal 0.000000e+000 0.000000e+000 1.000000e+000
      outer loop
         vertex 3.649067e+000 1.535819e+000 3.100000e+001
         vertex 4.000000e+000 2.500000e+000 3.100000e+001
         vertex 3.649067e+000 3.464181e+000 3.100000e+001
      endloop
   endfacet
   facet normal -0.000000e+000 0.000000e+000 1.000000e+000
      outer loop
         vertex 2.760472e+000 3.977212e+000 3.100000e+001
         vertex 1.750000e+000 3.799038e+000 3.100000e+001
         vertex 1.090461e+000 3.013030e+000 3.100000e+001
      endloop
   endfacet
   facet normal 0.000000e+000 -0.000000e+000 1.000000e+000
      outer loop
         vertex 1.090461e+000 1.986970e+000 3.100000e+001
         vertex 1.750000e+000 1.200962e+000 3.100000e+001
         vertex 2.760472e+000 3.977212e+000 3.100000e+001
      endloop
   endfacet
   facet normal 0.000000e+000 0.000000e+000 1.000000e+000
      outer loop
         vertex 2.760472e+000 1.022788e+000 3.100000e+001
         vertex 3.649067e+000 1.535819e+000 3.100000e+001
         vertex 1.750000e+000 1.200962e+000 3.100000e+001
      endloop
   endfacet
   facet normal 0.000000e+000 0.000000e+000 1.000000e+000
      outer loop
         vertex 1.090461e+000 1.986970e+000 3.100000e+001
         vertex 2.760472e+000 3.977212e+000 3.100000e+001
         vertex 1.090461e+000 3.013030e+000 3.100000e+001
      endloop
   endfacet
   facet normal 0.000000e+000 0.000000e+000 1.000000e+000
      outer loop
         vertex 3.649067e+000 3.464181e+000 3.100000e+001
         vertex 2.760472e+000 3.977212e+000 3.100000e+001
         vertex 3.649067e+000 1.535819e+000 3.100000e+001
      endloop
   endfacet
   facet normal 0.000000e+000 0.000000e+000 1.000000e+000
      outer loop
         vertex 1.750000e+000 1.200962e+000 3.100000e+001
         vertex 3.649067e+000 1.535819e+000 3.100000e+001
         vertex 2.760472e+000 3.977212e+000 3.100000e+001
      endloop
   endfacet
   facet normal 0.000000e+000 0.000000e+000 1.000000e+000
      outer loop
         vertex 3.649067e+000 1.065358e+002 3.100000e+001
         vertex 4.000000e+000 1.075000e+002 3.100000e+001
         vertex 3.649067e+000 1.084642e+002 3.100000e+001
      endloop
   endfacet
   facet normal -0.000000e+000 0.000000e+000 1.000000e+000
      outer loop
         vertex 2.760472e+000 1.089772e+002 3.100000e+001
         vertex 1.750000e+000 1.087990e+002 3.100000e+001
         vertex 1.090461e+000 1.080130e+002 3.100000e+001
      endloop
   endfacet
   facet normal -0.000000e+000 -0.000000e+000 1.000000e+000
      outer loop
         vertex 1.090461e+000 1.069870e+002 3.100000e+001
         vertex 1.750000e+000 1.062010e+002 3.100000e+001
         vertex 2.760472e+000 1.060228e+002 3.100000e+001
      endloop
   endfacet
   facet normal 0.000000e+000 0.000000e+000 1.000000e+000
      outer loop
         vertex 3.649067e+000 1.065358e+002 3.100000e+001
         vertex 3.649067e+000 1.084642e+002 3.100000e+001
         vertex 2.760472e+000 1.089772e+002 3.100000e+001
      endloop
   endfacet
   facet normal 0.000000e+000 0.000000e+000 1.000000e+000
      outer loop
         vertex 3.649067e+000 1.065358e+002 3.100000e+001
         vertex 2.760472e+000 1.089772e+002 3.100000e+001
         vertex 2.760472e+000 1.060228e+002 3.100000e+001
      endloop
   endfacet
   facet normal -0.000000e+000 0.000000e+000 1.000000e+000
      outer loop
         vertex 1.090461e+000 1.080130e+002 3.100000e+001
         vertex 1.090461e+000 1.069870e+002 3.100000e+001
         vertex 2.760472e+000 1.060228e+002 3.100000e+001
      endloop
   endfacet
   facet normal 0.000000e+000 0.000000e+000 1.000000e+000
      outer loop
         vertex 2.760472e+000 1.060228e+002 3.100000e+001
         vertex 2.760472e+000 1.089772e+002 3.100000e+001
         vertex 1.090461e+000 1.080130e+002 3.100000e+001
      endloop
   endfacet
   facet normal 0.000000e+000 0.000000e+000 1.000000e+000
      outer loop
         vertex 6.364907e+001 1.065358e+002 3.100000e+001
         vertex 6.400000e+001 1.075000e+002 3.100000e+001
         vertex 6.364907e+001 1.084642e+002 3.100000e+001
      endloop
   endfacet
   facet normal -0.000000e+000 0.000000e+000 1.000000e+000
      outer loop
         vertex 6.276047e+001 1.089772e+002 3.100000e+001
         vertex 6.175000e+001 1.087990e+002 3.100000e+001
         vertex 6.109046e+001 1.080130e+002 3.100000e+001
      endloop
   endfacet
   facet normal -0.000000e+000 -0.000000e+000 1.000000e+000
      outer loop
         vertex 6.109046e+001 1.069870e+002 3.100000e+001
         vertex 6.175000e+001 1.062010e+002 3.100000e+001
         vertex 6.276047e+001 1.060228e+002 3.100000e+001
      endloop
   endfacet
   facet normal 0.000000e+000 0.000000e+000 1.000000e+000
      outer loop
         vertex 6.364907e+001 1.065358e+002 3.100000e+001
         vertex 6.364907e+001 1.084642e+002 3.100000e+001
         vertex 6.276047e+001 1.089772e+002 3.100000e+001
      endloop
   endfacet
   facet normal 0.000000e+000 0.000000e+000 1.000000e+000
      outer loop
         vertex 6.364907e+001 1.065358e+002 3.100000e+001
         vertex 6.276047e+001 1.089772e+002 3.100000e+001
         vertex 6.276047e+001 1.060228e+002 3.100000e+001
      endloop
   endfacet
   facet normal 0.000000e+000 0.000000e+000 1.000000e+000
      outer loop
         vertex 6.109046e+001 1.080130e+002 3.100000e+001
         vertex 6.109046e+001 1.069870e+002 3.100000e+001
         vertex 6.276047e+001 1.089772e+002 3.100000e+001
      endloop
   endfacet
   facet normal 0.000000e+000 0.000000e+000 1.000000e+000
      outer loop
         vertex 6.276047e+001 1.060228e+002 3.100000e+001
         vertex 6.276047e+001 1.089772e+002 3.100000e+001
         vertex 6.109046e+001 1.069870e+002 3.100000e+001
      endloop
   endfacet
   facet normal 0.000000e+000 0.000000e+000 1.000000e+000
      outer loop
         vertex 6.364907e+001 1.535819e+000 3.100000e+001
         vertex 6.400000e+001 2.500000e+000 3.100000e+001
         vertex 6.364907e+001 3.464181e+000 3.100000e+001
      endloop
   endfacet
   facet normal -0.000000e+000 0.000000e+000 1.000000e+000
      outer loop
         vertex 6.276047e+001 3.977212e+000 3.100000e+001
         vertex 6.175000e+001 3.799038e+000 3.100000e+001
         vertex 6.364907e+001 3.464181e+000 3.100000e+001
      endloop
   endfacet
   facet normal 0.000000e+000 -0.000000e+000 1.000000e+000
      outer loop
         vertex 6.109046e+001 1.986970e+000 3.100000e+001
         vertex 6.175000e+001 1.200962e+000 3.100000e+001
         vertex 6.175000e+001 3.799038e+000 3.100000e+001
      endloop
   endfacet
   facet normal 0.000000e+000 0.000000e+000 1.000000e+000
      outer loop
         vertex 6.276047e+001 1.022788e+000 3.100000e+001
         vertex 6.364907e+001 1.535819e+000 3.100000e+001
         vertex 6.175000e+001 1.200962e+000 3.100000e+001
      endloop
   endfacet
   facet normal 0.000000e+000 0.000000e+000 1.000000e+000
      outer loop
         vertex 6.109046e+001 1.986970e+000 3.100000e+001
         vertex 6.175000e+001 3.799038e+000 3.100000e+001
         vertex 6.109046e+001 3.013030e+000 3.100000e+001
      endloop
   endfacet
   facet normal 0.000000e+000 0.000000e+000 1.000000e+000
      outer loop
         vertex 6.364907e+001 1.535819e+000 3.100000e+001
         vertex 6.364907e+001 3.464181e+000 3.100000e+001
         vertex 6.175000e+001 1.200962e+000 3.100000e+001
      endloop
   endfacet
   facet normal 0.000000e+000 0.000000e+000 1.000000e+000
      outer loop
         vertex 6.175000e+001 3.799038e+000 3.100000e+001
         vertex 6.175000e+001 1.200962e+000 3.100000e+001
         vertex 6.364907e+001 3.464181e+000 3.100000e+001
      endloop
   endfacet
endsolid
